
<global>
amp_veltrack=0
ampeg_release=0.35
xfin_hicc1=24
xfout_hicc1=127
xfout_locc1=127
</global>

<group>
group_label=Group_0-42
lpc_hicc1=42
lpc_locc1=0

<region>
hikey=B4
hivel=127
lokey=a4
loop_end=259734
loop_mode=loop_continuous
loop_start=75733
loop_xfade=22028
lovel=1
lpc=9aUjQq8YyMKU2thCN1qrwmWlfUJwBwfCuKsDQUe7GMFc1uRBdfYUwn5P5kEDK3bBkUHsP9y2XEFMpafBfgRCQWbMEcD9Bis9mDoiwBch/EB9O7PANXetQF0MEcEUvqpA
lpc_rms=-26.61
offset=872
pitch_keycenter=A#4
sample=Baritone_trills_minor_PP_A#4.opus
</region>

<region>
hikey=d4
hivel=127
lokey=c#4
loop_end=281893
loop_mode=loop_continuous
loop_start=82194
loop_xfade=23907
lovel=1
lpc=nF2IQsp+AsOLp5lCmYAmwkMEFkI5BSPBZb/jQOt+6sBeVcZAFU9jwSH2A0GeJCO/QPhgQWtjasE2xVtA4qFqwUQghEGNKRnBVKZVQf5m3MDzdvRA5L8uwQjXt8BPVxJB
lpc_rms=-26.03
offset=8330
pitch_keycenter=d4
sample=Baritone_trills_minor_PP_D4.opus
</region>

<region>
hikey=e4
hivel=127
lokey=d#4
loop_end=273706
loop_mode=loop_continuous
loop_start=79807
loop_xfade=23213
lovel=1
lpc=CMfGQVqFT8J/VwZCCeFbwS0SQUFHkdO/8/utv1oHbcAubtA/5aCVP/kqVb9yymE/Jk1rPsIqhL7LAOO/6xsxvwIGML4NRlNA8KCOv00TJ0AB7wbAMc6kv3cFdL/rWOY/
lpc_rms=-35.46
pitch_keycenter=e4
sample=Baritone_trills_minor_PP_E4.opus
</region>

<region>
hikey=f#4
hivel=127
lokey=f4
loop_end=273353
loop_mode=loop_continuous
loop_start=79704
loop_xfade=23183
lovel=1
lpc=f2phQlU3zMJdPFdCM/qmwdnfp0HrO8LAy79kQP5VgMDowPg/B59CwFpFA8DfsllADQ8ivm6dd0Bd7JM/XNHbwE4bvjx3n7bAGj7FQIgb20Acc6vA6KsBP/RgesDkGJ5A
lpc_rms=-28.27
offset=417
pitch_keycenter=f#4
sample=Baritone_trills_minor_PP_F#4.opus
</region>

<region>
hikey=g#4
hivel=127
lokey=g4
loop_end=281585
loop_mode=loop_continuous
loop_start=82104
loop_xfade=23881
lovel=1
lpc=yLWiQbmsA8LiZm5BafYbwWcfEEF9Rpo/5FgMP8ViMr/FGcy+85fDv0yGhL/1pn2/rakJQPgeKz+SeI6/iycxv3DknT+Tb8w+elQOP1+SdD8CnjC/xEe9vyyUCcAYT1FA
lpc_rms=-27.58
offset=4858
pitch_keycenter=g#4
sample=Baritone_trills_minor_PP_G#4.opus
</region>

<region>
hikey=a#2
hivel=127
lokey=a2
loop_end=272500
loop_mode=loop_continuous
loop_start=79455
loop_xfade=23110
lovel=1
lpc=RuodQo6gpsIelX9CbVIswoIYA0KO3N/AchghwDrpor9rGQfAzoM3v+nCD0HbAzfABuKwP660asA6LaE8i/GNv+wfGr/jPF2/XoiQQC/YWUAJOv3A7P6NQOSuYsBT0/o/
lpc_rms=-29.98
offset=2415
pitch_keycenter=a#2
sample=Baritone_trills_minor_PP_A#2.opus
</region>

<region>
hikey=a#3
hivel=127
lokey=a3
loop_end=275495
loop_mode=loop_continuous
loop_start=80329
loop_xfade=23364
lovel=1
lpc=16VAQj1/5cJkQ7NChMEZwgVlBUJLu4nBLs+VQF4tgMELTElBnWADwdfhTUEY1xjBGGYgQX2MA8HoanK+H4eGP4HSz7/1LU5ARypgPl8Bt7xfUma/9SGGwELF0EAoVSbA
lpc_rms=-30.59
offset=6277
pitch_keycenter=a#3
sample=Baritone_trills_minor_PP_A#3.opus
</region>

<region>
hivel=127
key=c2
loop_end=277491
loop_mode=loop_continuous
loop_start=80911
loop_xfade=23534
lovel=1
lpc=LxUIQjz9UsLpJe5BB7y5waVS6EAk2T3AqxblQBvWC8B4I5ZAYl1wwHALzj+Q/XE/lQgUQKylBMAT+2pAO1oIwBXOu76EtBHAobplP9Mz2L/X9A6/836aP98GKL5thU0/
lpc_rms=-31.71
offset=2570
sample=Baritone_trills_minor_PP_C2.opus
</region>

<region>
hikey=c3
hivel=127
lokey=b2
loop_end=277456
loop_mode=loop_continuous
loop_start=80900
loop_xfade=23531
lovel=1
lpc=j2baQbhuQcKyZspBoNxLwUXHP0FIx2LAfcD2v7Y4uL+HldNAohKZwGYQV73Xu0xA+p8xQBxoDsBJZfi/NeQWvwuGwL9X1Pc/dbGevnbWwT9BHZG/mcGzP7D7OsDTy9A/
lpc_rms=-28.81
offset=3146
pitch_keycenter=c3
sample=Baritone_trills_minor_PP_C3.opus
</region>

<region>
hikey=c4
hivel=127
lokey=b3
loop_end=264083
loop_mode=loop_continuous
loop_start=77001
loop_xfade=22396
lovel=1
lpc=PC8wQpyHx8JM551CIIQ6wgsLLEI7WtXBNdZ7QQCjhMGEwmBBmU9DwS7y+kBsVgHAtpnsQATQtsCVrw3BpbrUQI/LEj6YbbBApHchwBUCA8DZWvU+jC4hPhk9isCpOXJA
lpc_rms=-28.90
offset=775
pitch_keycenter=c4
sample=Baritone_trills_minor_PP_C4.opus
</region>

<region>
hikey=d2
hivel=127
lokey=c#2
loop_end=269077
loop_mode=loop_continuous
loop_start=78457
loop_xfade=22820
lovel=1
lpc=k0pBQkKR3MKHw7pCp4pYwnUoJUK3qdvBJIxHQfZLP8FWR15BFSNUwedSI0FJGOi/QzmpQK2fWcAz47LA1I1eQGuMyL99xiE+H2SSQPtuc8Awj2pAFGy0wP3y+D/Gew0/
lpc_rms=-28.12
pitch_keycenter=d2
sample=Baritone_trills_minor_PP_D2.opus
</region>

<region>
hikey=d3
hivel=127
lokey=c#3
loop_end=280980
loop_mode=loop_continuous
loop_start=81928
loop_xfade=23829
lovel=1
lpc=QkhkQkyf28LPMVZC+7BtwZbs0kHWCHHBIFFUQcihdsFfvxZB16p9wWBMRkGdMghAoxRnPz3kysCJR9NAB64PwbmdYUAwmRxA5xLRPwCiGL4Sc3nAa5NKvZGNzz4wA4k/
lpc_rms=-28.12
offset=4777
pitch_keycenter=d3
sample=Baritone_trills_minor_PP_D3.opus
</region>

<region>
hikey=e2
hivel=127
lokey=d#2
loop_end=270357
loop_mode=loop_continuous
loop_start=78831
loop_xfade=22929
lovel=1
lpc=35FbQl2H38IKvaFCZwtVwjMrP0KjJevBh/F1QeaQasFTqV9BLVrNwJrWsEChZ9O+9rtkQBMSIL/if6/AcnErv12bbL8jN/I/fnzxvWEam77wDY2/ZmccQGFulL9lysY+
lpc_rms=-30.57
pitch_keycenter=e2
sample=Baritone_trills_minor_PP_E2.opus
</region>

<region>
hikey=e3
hivel=127
lokey=d#3
loop_end=270757
loop_mode=loop_continuous
loop_start=78947
loop_xfade=22963
lovel=1
lpc=LHUAQiS9lcJa9VlCm/qBwc0uUkG4PsTAqMgZwCZAl8DiEZZADuWivv6O0j/xBD6/21UfPkTIRr4Mta+/WB2SPvGKED8qnCJAVep4wC4wGUDGewvA72wAPWSPM0DmjcO/
lpc_rms=-32.87
offset=120
pitch_keycenter=e3
sample=Baritone_trills_minor_PP_E3.opus
</region>

<region>
hikey=f#2
hivel=127
lokey=f2
loop_end=275879
loop_mode=loop_continuous
loop_start=80441
loop_xfade=23397
lovel=1
lpc=PpaLQl8wHMMaC+pCyoFIwhjd50HZ+FvBuJciQSEZecGwrXZB0H4hwTy/0kAkoxBAj85zQMJDr8A8sQPBDJMsPnuT5EDpPPbAz8tOQUnfHMFqu6RAHtuWwDIzqkBUsDrA
lpc_rms=-28.82
offset=600
pitch_keycenter=f#2
sample=Baritone_trills_minor_PP_F#2.opus
</region>

<region>
hikey=f#3
hivel=127
lokey=f3
loop_end=281337
loop_mode=loop_continuous
loop_start=82032
loop_xfade=23860
lovel=1
lpc=IFqjQnJBKcPafs5CXdUtwq6lJkKRxd/AB93KQOKVwsGg90xBHtIowaMJd0HU+wvBaP3UQMSgDkDNWDXBKfQPQb8TM8HYVjNBf2y8wAJZw0BQEhDBUyTsQK7PRcDYJBA/
lpc_rms=-27.44
offset=2852
pitch_keycenter=f#3
sample=Baritone_trills_minor_PP_F#3.opus
</region>

<region>
hikey=g#2
hivel=127
lokey=g2
loop_end=275811
loop_mode=loop_continuous
loop_start=80421
loop_xfade=23391
lovel=1
lpc=Ys6aQvbUOsO+TCVDPOq3wqn7hkJI/UPCd0y2QU4XjsHEgn9BDgk3wc19TEFg2itBYw12wS+8/kBQc5bBuJ0MQc2S3EAVX9rAZIrlQDmbC8F/i20/jbfZv5jIEkGkYJTA
lpc_rms=-27.22
pitch_keycenter=g#2
sample=Baritone_trills_minor_PP_G#2.opus
</region>

<region>
hikey=g#3
hivel=127
lokey=g3
loop_end=281079
loop_mode=loop_continuous
loop_start=81957
loop_xfade=23838
lovel=1
lpc=O3DeQXHxbcIGgCJC/o6RwT/xkEFWJwHBZ2GLP/DN6cBc5uRAbdZFwJ3MEkA6eYk/Q/wtwJPUQEDyQtW/2pDbvyg3wj+/sDG/O9dYQP+caMDbZlE+sOxvvu5Utj5Mmwg/
lpc_rms=-36.31
offset=4347
pitch_keycenter=g#3
sample=Baritone_trills_minor_PP_G#3.opus
</region>
</group>

<group>
group_label=Group_43-84
lpc_hicc1=84
lpc_locc1=43

<region>
hikey=B4
hivel=127
lokey=a4
loop_end=282298
loop_mode=loop_continuous
loop_start=82312
loop_xfade=23941
lovel=1
lpc=q+A7QYc21cH6F+JBR7OfwTlgSEGOyqDA9douQHP+I8EVWINBMgl1wZ0LPkFJw//AngbJP5rSC0D5puC/uzH0P5m3HsAGoUw/b9SDvi64I0D9vybARyFXQOuRgMDqYyFA
lpc_rms=-21.30
offset=4575
pitch_keycenter=A#4
sample=Baritone_trills_minor_MF_A#4.opus
</region>

<region>
hikey=c4
hivel=127
lokey=b3
loop_end=277810
loop_mode=loop_continuous
loop_start=81004
loop_xfade=23561
lovel=1
lpc=mGoZQUq7vMGPNM9B9sWSwVrTIkEdeKbAmD3CQNIAPsEWQExB9S7+wC94YUAuKq2/r9nQPp1Zuz+21lLAIjV4QJZeRMDANRxArZ8swEFFcEA+KJLArh9UQCkon7/t9lU+
lpc_rms=-19.85
offset=4875
pitch_keycenter=c4
sample=Baritone_trills_minor_MF_C4.opus
</region>

<region>
hikey=d4
hivel=127
lokey=c#4
loop_end=280221
loop_mode=loop_continuous
loop_start=81707
loop_xfade=23765
lovel=1
lpc=e8uNQaPzL8KEqzlCzDDwwd0/ZkEYVpvAAwKmQHFjcsGz75tBduxdwcH4WkBs8YBATVZgwPKnZ0ABlsfA35ngQHCXzcDJ8q9AxSKBwOYrZkAnJ4bAFMeIQDNVgcAmJwtA
lpc_rms=-17.69
offset=1975
pitch_keycenter=d4
sample=Baritone_trills_minor_MF_D4.opus
</region>

<region>
hikey=e4
hivel=127
lokey=d#4
loop_end=275840
loop_mode=loop_continuous
loop_start=80429
loop_xfade=23394
lovel=1
lpc=DJDTQKOReMFEAYRB7XUwwaA7nkDyt4q+550lv500aMAfM+FA4TO7wMWQU0AHjVC/8PSLv8Nlnz+V5Uo+s7lxvx93ZT8ewJm/iV3AP7GK9b/AuIM/MNJJP3DwsL9qmz0/
lpc_rms=-22.29
offset=952
pitch_keycenter=e4
sample=Baritone_trills_minor_MF_E4.opus
</region>

<region>
hikey=f#4
hivel=127
lokey=f4
loop_end=272611
loop_mode=loop_continuous
loop_start=79488
loop_xfade=23120
lovel=1
lpc=s5c0QU3IyMFGubdBiks9waVToEAzMoq/6vy2vgO3usAl8UlBI0hRwQSUEkHfil7AYbpPwDn620DzO5TA8bZ+P+OvA0CfbE/AWHk8PidLJEAiaBrAgW2DQAIIr8A8JDpA
lpc_rms=-18.10
offset=1778
pitch_keycenter=f#4
sample=Baritone_trills_minor_MF_F#4.opus
</region>

<region>
hikey=g#4
hivel=127
lokey=g4
loop_end=274025
loop_mode=loop_continuous
loop_start=79900
loop_xfade=23240
lovel=1
lpc=JP8lQdz2tMFJhKxBBURCwQCGnUDPbyo+Ewubv7MYUMBWQctAG4bLwGelqUCXNWvA2lKYPlTCD0DAygbAjpoPQDEjAMBreHG/DAOxP+rh1z/Qv+6/xUfMPyuECcB0+NY/
lpc_rms=-18.21
offset=4886
pitch_keycenter=g#4
sample=Baritone_trills_minor_MF_G#4.opus
</region>

<region>
hikey=a#2
hivel=127
lokey=a2
loop_end=284961
loop_mode=loop_continuous
loop_start=83089
loop_xfade=24167
lovel=1
lpc=6GBLQWahA8I0ExhCdx7kwa4FhkHpbgXBn5q9QFJ5QcG6zItBVGdYwRdX4EBTQ2XAFBXPPejLO0BGI76/f/ySv3Ww6j+5cgTAsyBYP2bx8j/2GhrA4dHkP88ysb8DA+8+
lpc_rms=-21.00
offset=6994
pitch_keycenter=a#2
sample=Baritone_trills_minor_MF_A#2.opus
</region>

<region>
hikey=a#3
hivel=127
lokey=a3
loop_end=281818
loop_mode=loop_continuous
loop_start=82172
loop_xfade=23901
lovel=1
lpc=nkMOQdIPqsFmZK1BvvBOwWdBoUCeBZ+/sdVfQDVXBcG8Af9AvF2YwOCjij/dMeA/UaqnvzYH/z6HWIu/W94zP3J6kr7NVZs/pHPpv53X8j9BkTm/P5Shv2BExj/ULNC+
lpc_rms=-22.98
offset=2421
pitch_keycenter=a#3
sample=Baritone_trills_minor_MF_A#3.opus
</region>

<region>
hivel=127
key=c2
loop_end=281969
loop_mode=loop_continuous
loop_start=82216
loop_xfade=23913
lovel=1
lpc=y8GLQVlQL8KC40hC3N8fwt1uzkHa1UfByWPrP+3T8L9imNtAtlAQwdQeEkH9/tHAkcsvQNZ+hT+lWpi+NY+av1dKEEAMQXLAf9JhQNgIBMBugRw/mC6mvo8rUz7NX1u9
lpc_rms=-19.17
offset=4868
sample=Baritone_trills_minor_MF_C2.opus
</region>

<region>
hikey=c3
hivel=127
lokey=b2
loop_end=277605
loop_mode=loop_continuous
loop_start=80944
loop_xfade=23543
lovel=1
lpc=0UESQWXktMEHHdhBDBC2wVTcaUEUTN3ALuI+QHAYVcC3uhBAh79oPhWy2L4JK3a/FcrwP7SM4r8IWq8/NZxUvzmp2z9XwEnA10AiQDvdML+J/DG/jKbtP7Z63r+uwAI/
lpc_rms=-20.78
offset=4650
pitch_keycenter=c3
sample=Baritone_trills_minor_MF_C3.opus
</region>

<region>
hikey=d2
hivel=127
lokey=c#2
loop_end=236835
loop_mode=loop_continuous
loop_start=69056
loop_xfade=20086
lovel=1
lpc=NBmDQXGHLMJ4LVJCrvsswj/T9EFL56bBD6gkQYbJ6cDdg1JBo0eCwXcuRkFIMAnBmyOgQGQzV0D6QwLBqRqtQMrAGMBszDBArUUywAZx4T/4/6K/YzDAP8HETb4pKTa/
lpc_rms=-18.21
offset=5256
pitch_keycenter=d2
sample=Baritone_trills_minor_MF_D2.opus
</region>

<region>
hikey=d3
hivel=127
lokey=c#3
loop_end=280118
loop_mode=loop_continuous
loop_start=81677
loop_xfade=23756
lovel=1
lpc=Qh0wQXjw18FWMfVBBny9wdEOXkFLeN/AfVztQJRtUcFcGGFB5aUowWs79UDPa6DAg48vQPiu9r/qopo/SApCPRPYGD+t+hbAc+wAQOscAb9xVEy/rOg0QBiBUMBCBa0/
lpc_rms=-19.50
offset=4914
pitch_keycenter=d3
sample=Baritone_trills_minor_MF_D3.opus
</region>

<region>
hikey=e2
hivel=127
lokey=d#2
loop_end=267797
loop_mode=loop_continuous
loop_start=78084
loop_xfade=22711
lovel=1
lpc=nDppQdkSE8K+kiNCzp/ewbyfbkEOVRfBKuvyQF5rPsF0XJNBKDeEwQvxA0E+Op7Aum2NQAkU+j/GQfLAwjvKQMjk+b/YWRa/TdEUP9/GyT/rB3HANnOGQFOk2r9qaEy+
lpc_rms=-19.84
offset=3570
pitch_keycenter=e2
sample=Baritone_trills_minor_MF_E2.opus
</region>

<region>
hikey=e3
hivel=127
lokey=d#3
loop_end=277542
loop_mode=loop_continuous
loop_start=80926
loop_xfade=23538
lovel=1
lpc=K9BQQWdRB8LADBBCoKGqwdt36kBgshy+/NEVQCM1H8F9oUlBMBAiwVkcqEAzBb0+68Xdv0clqD9dwF2/4v3yv78eZEDXjQvAycwSPz0UaD+WygbASIabP4Bo7LwC1da8
lpc_rms=-25.68
offset=155
pitch_keycenter=e3
sample=Baritone_trills_minor_MF_E3.opus
</region>

<region>
hikey=f#2
hivel=127
lokey=f2
loop_end=271759
loop_mode=loop_continuous
loop_start=79239
loop_xfade=23047
lovel=1
lpc=LTtiQbBQDcIfSBxCwRXlwVoFkkHLkUXBFU8uQUb5hMEmxJlBq9IswQRSCUBoZJW/gKuCP+SRBkBR6A3Adc7gP26wR8DtBBFA8aizv5X/bUDzz5nAutpRQPO4w78KvqM+
lpc_rms=-20.28
offset=5456
pitch_keycenter=f#2
sample=Baritone_trills_minor_MF_F#2.opus
</region>

<region>
hikey=f#3
hivel=127
lokey=f3
loop_end=280363
loop_mode=loop_continuous
loop_start=81748
loop_xfade=23777
lovel=1
lpc=oIeOQQk9OcLsVEZCtTPhwePo9UA8ooo9XdOkQF+ycsGdMXlBY8cHwZJH2T3J2MRANCC0wAOapEAaVBDBGYYaQZtSscBLd1ZAJlgowBXyKUBQ/wvAy16Wv0+4OEBPFYS/
lpc_rms=-20.10
offset=3864
pitch_keycenter=f#3
sample=Baritone_trills_minor_MF_F#3.opus
</region>

<region>
hikey=g#2
hivel=127
lokey=g2
loop_end=278332
loop_mode=loop_continuous
loop_start=81156
loop_xfade=23605
lovel=1
lpc=WseLQcoONsJI9U5CnQUTwpBKn0Fj8SnBQfkgQZzbjsEzZ6RBLsozwYIIXz/qP/o/e+MBvx23lD+s1zzAlTCpQFbwrcDdHhtA3D0Fv9oHxj+RJlrA5uexQBpvssCS9ANA
lpc_rms=-21.36
offset=4454
pitch_keycenter=g#2
sample=Baritone_trills_minor_MF_G#2.opus
</region>

<region>
hikey=g#3
hivel=127
lokey=g3
loop_end=280481
loop_mode=loop_continuous
loop_start=81783
loop_xfade=23787
lovel=1
lpc=CfkIQbhNpcH4hbVBZ7R7wTHDAEHmfmvAVvaPQOUqDcHJLRdBPu7GwJL9QkB8tlK/GC8VvzUzQ0DJ97nAlaLCQMz5S8B1CFM/120ov+4JD0DcqV3A+ZRSQH0Q7b8h9NI+
lpc_rms=-22.59
offset=4735
pitch_keycenter=g#3
sample=Baritone_trills_minor_MF_G#3.opus
</region>
</group>

<group>
group_label=Group_85-127
lpc_hicc1=127
lpc_locc1=85

<region>
hikey=a#2
hivel=127
lokey=a2
loop_end=278739
loop_mode=loop_continuous
loop_start=81275
loop_xfade=23639
lovel=1
lpc=t14IQe8Dm8HNK6RBigF2weirAUE/+kTA119MQPWdtMDPj6pAr31lwCHVaUAgzUnAcBnkP253AMDLAvY/Vr07PrCWFMAz1WJAFr1vwCD8NkAPyGu/SUctP7EUhr9G9Jo+
lpc_rms=-17.10
offset=3317
pitch_keycenter=a#2
sample=Baritone_trills_minor_FF_A#2.opus
</region>

<region>
hikey=a#3
hivel=127
lokey=a3
loop_end=282707
loop_mode=loop_continuous
loop_start=82432
loop_xfade=23976
lovel=1
lpc=pDHVQJIQgME1zY9Bi/JRwcRg30CsKoLAKvClQJ7h0MAnV3pAkc4xvhdWar+CAa4+S5ygvSGN1T9LDYfAT+uMQDTyAsCsn6e9bJC/Pv5/Gz8s6sa//yz9P+2WmL8gMGQ+
lpc_rms=-21.03
offset=13132
pitch_keycenter=a#3
sample=Baritone_trills_minor_FF_A#3.opus
</region>

<region>
hikey=B4
hivel=127
lokey=a4
loop_end=276791
loop_mode=loop_continuous
loop_start=80707
loop_xfade=23474
lovel=1
lpc=5C8+QfzM2MGvSvxBefW/wdalbkGBIQzB54fIQOtpBMFxXOFAcrKCvrTqu8DRzPtASDkKwU6bBEFWJOnAzEPdQLeMt8BLYhpASigvvz28H0DipibAOEkxQFwU7r8n85k/
lpc_rms=-13.19
offset=4574
pitch_keycenter=A#4
sample=Baritone_trills_minor_FF_A#4.opus
</region>

<region>
hivel=127
key=c2
loop_end=219138
loop_mode=loop_continuous
loop_start=63896
loop_xfade=18585
lovel=1
lpc=uHsbQZo+q8HARbBBcTyNwTTtOkG/vc/AvMx6QJ5Gk8DWKZhAVHb1v8kUsb6SSrI/FQ+Hv4OnzL5lBsM/t8Cbv6mqgT8Y3Na/ds7vP0MX0L+HjD4/oqzIPzYJAcAPlug+
lpc_rms=-14.65
offset=6018
sample=Baritone_trills_minor_FF_C2.opus
</region>

<region>
hikey=c3
hivel=127
lokey=b2
loop_end=278217
loop_mode=loop_continuous
loop_start=81122
loop_xfade=23595
lovel=1
lpc=TTcIQTNOmsF4U6NBNu56wbpMDUF1kl/AU4VEQBqGy8BIKf9AUSzmwN1I0kCTEYrAeSYkP80CCj+mXr0+z/MhvxL+IT4S/88+m/iuv45MFUCRCnq/kyO7Pc5TD7/g5lU+
lpc_rms=-18.71
offset=5856
pitch_keycenter=c3
sample=Baritone_trills_minor_FF_C3.opus
</region>

<region>
hikey=c4
hivel=127
lokey=b3
loop_end=283572
loop_mode=loop_continuous
loop_start=82684
loop_xfade=24049
lovel=1
lpc=BXUFQcUvqsEQFNBBQjinwTnBR0HXvujA/7jCQE3f2MAz/ZpAKokwvwQi47+xVMA/BvE5v32u3z9OrWTAQCGJQJbtHsCXR70+3mgGv9e+7D8V+BTA8WIaQB9S67+3yho/
lpc_rms=-17.43
offset=6608
pitch_keycenter=c4
sample=Baritone_trills_minor_FF_C4.opus
</region>

<region>
hikey=d2
hivel=127
lokey=c#2
loop_end=214679
loop_mode=loop_continuous
loop_start=62596
loop_xfade=18206
lovel=1
lpc=9JQpQYKQw8GeIeRB1YDUweMUo0E7Q1bBXfj8QNU+68B+ogZBs6DgwB2fo0Co3i/AfU8kv2fIbEBhP1TAr2ZaP8P/zj/V+yHA/kOlP39Wkj/Z5DrAWg5qQOLaI8BAIw8/
lpc_rms=-16.15
offset=3667
pitch_keycenter=d2
sample=Baritone_trills_minor_FF_D2.opus
</region>

<region>
hikey=d3
hivel=127
lokey=c#3
loop_end=266721
loop_mode=loop_continuous
loop_start=77770
loop_xfade=22620
lovel=1
lpc=YGYIQa1DmMEaEp5BCqVvwXODEUHgCJTASWlbQKtqjsDCWHRAnWI5wIgKakC7GUnA0Y/AP4a3vb8Tuyw/A1jUP+6VP8DXHjdA52gKwLCvwT/UPRW/rtrTP+nNJcBUjY0/
lpc_rms=-17.33
offset=3237
pitch_keycenter=d3
sample=Baritone_trills_minor_FF_D3.opus
</region>

<region>
hikey=d4
hivel=127
lokey=c#4
loop_end=278904
loop_mode=loop_continuous
loop_start=81323
loop_xfade=23653
lovel=1
lpc=X9swQexS1sH0EvZBQTHCwfhfZUEJa5rAqCmNv7dhFT6tsn0/EdUfP3z3Yr/S1WC/Sh5vPxyC0j9qNHHA9iSZQPBvMcD/m9m/AzpIQKhSxb/guYm9j2YbQInTVsBHdso/
lpc_rms=-13.92
offset=2301
pitch_keycenter=d4
sample=Baritone_trills_minor_FF_D4.opus
</region>

<region>
hikey=e2
hivel=127
lokey=d#2
loop_end=211262
loop_mode=loop_continuous
loop_start=69215
loop_xfade=20132
lovel=1
lpc=poAFQab7msGBH7JBXJ6bwd1iYkFufg3BFVygQJf2lsAgMaNAPAdWwN8W6z/Hk6C/8CY0vRsg4T9Adqm/y6LqvgUA5D8H6gDAL1DQP3KOEr/FO7C+dqF8P+cBLr+1iDm9
lpc_rms=-17.83
offset=3385
pitch_keycenter=e2
sample=Baritone_trills_minor_FF_E2.opus
</region>

<region>
hikey=e3
hivel=127
lokey=d#3
loop_end=276826
loop_mode=loop_continuous
loop_start=80717
loop_xfade=23477
lovel=1
lpc=T8AFQR1losHcwqZBIdRBwambeUBv5Li+ohA6QG93E8HbqzFBZSzCwNLs7j+SJuS/azgdQKTKJcCtzeg/M8qIPmVAq79lvoq+OmWgPwM4jz2DU5q/ZhXfP2Ib6r+vc1A/
lpc_rms=-22.08
offset=973
pitch_keycenter=e3
sample=Baritone_trills_minor_FF_E3.opus
</region>

<region>
hikey=e4
hivel=127
lokey=d#4
loop_end=277666
loop_mode=loop_continuous
loop_start=80962
loop_xfade=23548
lovel=1
lpc=mxzBQEDqZ8GDSIhB5SlcwU9CEEEVGKrAmYhTQGu6XMB3DSVAQtziPlPNA8A/xNE/rqePv3tJA0CI3DbAuRlCQP6iDsDJ1/49Kz1+P1NLDL8lfYW/o9cfQKEcHcCEPY0/
lpc_rms=-19.09
offset=689
pitch_keycenter=e4
sample=Baritone_trills_minor_FF_E4.opus
</region>

<region>
hikey=f#2
hivel=127
lokey=f2
loop_end=247777
loop_mode=loop_continuous
loop_start=75970
loop_xfade=22096
lovel=1
lpc=DnAhQR7NtcFXYcRBWpCfwRnvMUHSmmzAPkoeQJjbqsAGFchAxBeSwGx/RUBCJGG/Sbb2vttZBr/joP8/cQD6v7TnDz8udYc/lvQqwG3ca0BYpyvAfrMBQI3L8r/4ASw/
lpc_rms=-17.86
offset=4212
pitch_keycenter=f#2
sample=Baritone_trills_minor_FF_F#2.opus
</region>

<region>
hikey=f#3
hivel=127
lokey=f3
loop_end=278573
loop_mode=loop_continuous
loop_start=81226
loop_xfade=23625
lovel=1
lpc=R3Q5QaQH3MGUGepBHs6fwaHJFEGCuFHAQJjyPzyRh8Da/aJAxhM3wNjINEDMi5fAR9mWQMy6n79XZhnAYieEQJIdU8D+YVg/Y+MtvgCMmz/yMeG/r/AtQDs2MsAwYY4/
lpc_rms=-16.10
offset=4029
pitch_keycenter=f#3
sample=Baritone_trills_minor_FF_F#3.opus
</region>

<region>
hikey=f#4
hivel=127
lokey=f4
loop_end=273094
loop_mode=loop_continuous
loop_start=79629
loop_xfade=23161
lovel=1
lpc=HfDuQPxJicHWQZVBaL9WweQDBEEz6djAU+zwQNdV7MCzXn9AHMyHvrL+s7/L9r0/SlW3vwZPqT8TPoe/ZK2uP24lpr+q7Lo/xHDXv0DIhz7sIE0/V/nGPtwyj7//Pjk/
lpc_rms=-14.37
offset=1179
pitch_keycenter=f#4
sample=Baritone_trills_minor_FF_F#4.opus
</region>

<region>
hikey=g#2
hivel=127
lokey=g2
loop_end=276793
loop_mode=loop_continuous
loop_start=80707
loop_xfade=23474
lovel=1
lpc=t2koQWxJw8GO3dZBktujwWqXIUFfL1nA7SZoQHxf/cBDJyBBOhYdwXQOFEEwlsjA9xjtP9w9vD9vHi7And0mQPMFeL+UjV6/F1zCP/B7db+9rzE/0C4cP/H42r91JBM/
lpc_rms=-17.82
offset=6824
pitch_keycenter=g#2
sample=Baritone_trills_minor_FF_G#2.opus
</region>

<region>
hikey=g#3
hivel=127
lokey=g3
loop_end=280969
loop_mode=loop_continuous
loop_start=81925
loop_xfade=23829
lovel=1
lpc=jsMJQRroocHJD69BrUFgwZh1jEDq65U/WPtXv2DIisBYy/ZAA5LVwLC6nEC1Q3LAoxUvQCIGn74kcBLAGjFVQBG1jr/K1gnA3iVFQPk4x78c8Qs++7m6P/Va9b9yETg/
lpc_rms=-20.90
offset=3101
pitch_keycenter=g#3
sample=Baritone_trills_minor_FF_G#3.opus
</region>

<region>
hikey=g#4
hivel=127
lokey=g4
loop_end=275936
loop_mode=loop_continuous
loop_start=80457
loop_xfade=23402
lovel=1
lpc=yq7cQDpHgcHDG5FBRINJwWqx1ECkc5DA8+qvQKQ02cCxopxA76cVvyY9NMBksTBADbbNvsyGur95UKc/oDYJvscVNz5GCbO/alsDQNM6CMBsv7M/KNlUP1bD7L9A3Jo/
lpc_rms=-15.91
offset=572
pitch_keycenter=g#4
sample=Baritone_trills_minor_FF_G#4.opus
</region>
</group>